<svg xmlns="http://www.w3.org/2000/svg" width="1600" height="620" viewBox="0 0 1600 620" role="img" aria-labelledby="title desc">
  <title id="title">AIレビューコメントが返ってくるまでの流れ</title>
  <desc id="desc">PR作成、GitHub Actions、Python Script、Gemini API、AI Review Commentの順に処理が進む横長のフロー図。</desc>
  <defs>
    <filter id="cardShadow" x="-18%" y="-18%" width="136%" height="145%">
      <feDropShadow dx="5" dy="7" stdDeviation="0" flood-color="#314b36" flood-opacity=".07"/>
      <feDropShadow dx="0" dy="12" stdDeviation="10" flood-color="#473618" flood-opacity=".09"/>
    </filter>
    <pattern id="grain" width="34" height="34" patternUnits="userSpaceOnUse">
      <circle cx="6" cy="7" r="1.1" fill="#d7c39f" opacity=".20"/>
      <circle cx="26" cy="17" r="1" fill="#9fb28a" opacity=".14"/>
      <circle cx="15" cy="29" r=".9" fill="#a96d3a" opacity=".12"/>
    </pattern>
  </defs>

  <rect width="1600" height="620" fill="#f4ead8"/>
  <rect width="1600" height="620" fill="url(#grain)" opacity=".72"/>
  <rect x="8" y="8" width="1584" height="604" rx="34" fill="none" stroke="#d7c39f" stroke-width="4"/>
  <circle cx="118" cy="92" r="150" fill="#9fb28a" opacity=".16"/>
  <circle cx="1458" cy="90" r="180" fill="#d9b779" opacity=".20"/>

  <rect x="64" y="52" width="558" height="78" rx="16" fill="#314b36"/>
  <rect x="92" y="36" width="118" height="24" rx="5" fill="#d9b779" opacity=".62" transform="rotate(-6 92 36)"/>
  <text x="96" y="101" font-family="system-ui, -apple-system, BlinkMacSystemFont, 'Segoe UI', sans-serif" font-size="34" font-weight="900" fill="#fff8e9">AIレビューコメントが返ってくるまで</text>
  <text x="66" y="172" font-family="system-ui, -apple-system, BlinkMacSystemFont, 'Segoe UI', sans-serif" font-size="22" font-weight="700" fill="#6d715d">Pull Requestをきっかけに自動処理が動き、Gemini APIがレビュー文を作成します。</text>

  <g transform="translate(70 248)">
    <g filter="url(#cardShadow)">
      <rect width="230" height="282" rx="24" fill="#fff8e9" stroke="#d7c39f" stroke-width="3"/>
    </g>
    <circle cx="42" cy="42" r="23" fill="#4f6f52"/>
    <text x="42" y="51" text-anchor="middle" font-family="system-ui, -apple-system, BlinkMacSystemFont, 'Segoe UI', sans-serif" font-size="20" font-weight="900" fill="#fff">1</text>
    <text x="78" y="51" font-family="system-ui, -apple-system, BlinkMacSystemFont, 'Segoe UI', sans-serif" font-size="27" font-weight="900" fill="#29372c">PR作成</text>
    <path d="M52 100 h126 a20 20 0 0 1 20 20 v64 a20 20 0 0 1-20 20H52a20 20 0 0 1-20-20v-64a20 20 0 0 1 20-20Z" fill="#edf2df" stroke="#9fb28a" stroke-width="3"/>
    <path d="M73 150 h88 M73 128 h56 M73 172 h76" stroke="#314b36" stroke-width="7" stroke-linecap="round" opacity=".76"/>
    <text x="115" y="235" text-anchor="middle" font-family="system-ui, -apple-system, BlinkMacSystemFont, 'Segoe UI', sans-serif" font-size="18" font-weight="800" fill="#6d715d">コード変更をPRとして</text>
    <text x="115" y="260" text-anchor="middle" font-family="system-ui, -apple-system, BlinkMacSystemFont, 'Segoe UI', sans-serif" font-size="18" font-weight="800" fill="#6d715d">提出する</text>
  </g>

  <text x="335" y="398" text-anchor="middle" font-family="system-ui, -apple-system, BlinkMacSystemFont, 'Segoe UI', sans-serif" font-size="28" font-weight="900" fill="#4f6f52" opacity=".70">▶</text>

  <g transform="translate(371 248)">
    <g filter="url(#cardShadow)">
      <rect width="230" height="282" rx="24" fill="#fff8e9" stroke="#d7c39f" stroke-width="3"/>
    </g>
    <circle cx="42" cy="42" r="23" fill="#4f6f52"/>
    <text x="42" y="51" text-anchor="middle" font-family="system-ui, -apple-system, BlinkMacSystemFont, 'Segoe UI', sans-serif" font-size="20" font-weight="900" fill="#fff">2</text>
    <text x="78" y="42" font-family="system-ui, -apple-system, BlinkMacSystemFont, 'Segoe UI', sans-serif" font-size="24" font-weight="900" fill="#29372c">GitHub</text>
    <text x="78" y="72" font-family="system-ui, -apple-system, BlinkMacSystemFont, 'Segoe UI', sans-serif" font-size="24" font-weight="900" fill="#29372c">Actions</text>
    <rect x="39" y="105" width="152" height="94" rx="20" fill="#efe5cf" stroke="#d9b779" stroke-width="3"/>
    <path d="M72 153 h52 M106 127 v52 M142 138 l20 15-20 15" fill="none" stroke="#314b36" stroke-width="8" stroke-linecap="round" stroke-linejoin="round" opacity=".80"/>
    <text x="115" y="235" text-anchor="middle" font-family="system-ui, -apple-system, BlinkMacSystemFont, 'Segoe UI', sans-serif" font-size="18" font-weight="800" fill="#6d715d">PRをきっかけに</text>
    <text x="115" y="260" text-anchor="middle" font-family="system-ui, -apple-system, BlinkMacSystemFont, 'Segoe UI', sans-serif" font-size="18" font-weight="800" fill="#6d715d">自動処理を起動する</text>
  </g>

  <text x="636" y="398" text-anchor="middle" font-family="system-ui, -apple-system, BlinkMacSystemFont, 'Segoe UI', sans-serif" font-size="28" font-weight="900" fill="#4f6f52" opacity=".70">▶</text>

  <g transform="translate(672 248)">
    <g filter="url(#cardShadow)">
      <rect width="230" height="282" rx="24" fill="#fff8e9" stroke="#d7c39f" stroke-width="3"/>
    </g>
    <circle cx="42" cy="42" r="23" fill="#4f6f52"/>
    <text x="42" y="51" text-anchor="middle" font-family="system-ui, -apple-system, BlinkMacSystemFont, 'Segoe UI', sans-serif" font-size="20" font-weight="900" fill="#fff">3</text>
    <text x="78" y="42" font-family="system-ui, -apple-system, BlinkMacSystemFont, 'Segoe UI', sans-serif" font-size="24" font-weight="900" fill="#29372c">Python</text>
    <text x="78" y="72" font-family="system-ui, -apple-system, BlinkMacSystemFont, 'Segoe UI', sans-serif" font-size="24" font-weight="900" fill="#29372c">Script</text>
    <rect x="36" y="102" width="158" height="100" rx="20" fill="#26382b" stroke="#314b36" stroke-width="3"/>
    <text x="58" y="140" font-family="ui-monospace, SFMono-Regular, Menlo, Consolas, monospace" font-size="17" font-weight="700" fill="#fff8e9">diff + rules</text>
    <text x="58" y="170" font-family="ui-monospace, SFMono-Regular, Menlo, Consolas, monospace" font-size="17" font-weight="700" fill="#d9b779">send()</text>
    <text x="115" y="235" text-anchor="middle" font-family="system-ui, -apple-system, BlinkMacSystemFont, 'Segoe UI', sans-serif" font-size="18" font-weight="800" fill="#6d715d">差分とレビュー条件を</text>
    <text x="115" y="260" text-anchor="middle" font-family="system-ui, -apple-system, BlinkMacSystemFont, 'Segoe UI', sans-serif" font-size="18" font-weight="800" fill="#6d715d">Gemini APIへ送る</text>
  </g>

  <text x="937" y="398" text-anchor="middle" font-family="system-ui, -apple-system, BlinkMacSystemFont, 'Segoe UI', sans-serif" font-size="28" font-weight="900" fill="#4f6f52" opacity=".70">▶</text>

  <g transform="translate(973 248)">
    <g filter="url(#cardShadow)">
      <rect width="230" height="282" rx="24" fill="#fff8e9" stroke="#d7c39f" stroke-width="3"/>
    </g>
    <circle cx="42" cy="42" r="23" fill="#4f6f52"/>
    <text x="42" y="51" text-anchor="middle" font-family="system-ui, -apple-system, BlinkMacSystemFont, 'Segoe UI', sans-serif" font-size="20" font-weight="900" fill="#fff">4</text>
    <text x="78" y="42" font-family="system-ui, -apple-system, BlinkMacSystemFont, 'Segoe UI', sans-serif" font-size="24" font-weight="900" fill="#29372c">Gemini</text>
    <text x="78" y="72" font-family="system-ui, -apple-system, BlinkMacSystemFont, 'Segoe UI', sans-serif" font-size="24" font-weight="900" fill="#29372c">API</text>
    <rect x="47" y="104" width="136" height="88" rx="20" fill="#edf2df" stroke="#9fb28a" stroke-width="3"/>
    <rect x="69" y="126" width="92" height="42" rx="12" fill="#314b36"/>
    <text x="115" y="154" text-anchor="middle" font-family="system-ui, -apple-system, BlinkMacSystemFont, 'Segoe UI', sans-serif" font-size="22" font-weight="900" fill="#fff8e9">API</text>
    <path d="M54 121 l7 12 12 7-12 7-7 12-7-12-12-7 12-7Z" fill="#d9b779" opacity=".85"/>
    <path d="M178 169 l5 9 9 5-9 5-5 9-5-9-9-5 9-5Z" fill="#d9b779" opacity=".72"/>
    <text x="115" y="235" text-anchor="middle" font-family="system-ui, -apple-system, BlinkMacSystemFont, 'Segoe UI', sans-serif" font-size="18" font-weight="800" fill="#6d715d">レビュー文を</text>
    <text x="115" y="260" text-anchor="middle" font-family="system-ui, -apple-system, BlinkMacSystemFont, 'Segoe UI', sans-serif" font-size="18" font-weight="800" fill="#6d715d">生成する</text>
  </g>

  <text x="1238" y="398" text-anchor="middle" font-family="system-ui, -apple-system, BlinkMacSystemFont, 'Segoe UI', sans-serif" font-size="28" font-weight="900" fill="#4f6f52" opacity=".70">▶</text>

  <g transform="translate(1274 248)">
    <g filter="url(#cardShadow)">
      <rect width="230" height="282" rx="24" fill="#fff8e9" stroke="#d7c39f" stroke-width="3"/>
    </g>
    <circle cx="42" cy="42" r="23" fill="#4f6f52"/>
    <text x="42" y="51" text-anchor="middle" font-family="system-ui, -apple-system, BlinkMacSystemFont, 'Segoe UI', sans-serif" font-size="20" font-weight="900" fill="#fff">5</text>
    <text x="78" y="42" font-family="system-ui, -apple-system, BlinkMacSystemFont, 'Segoe UI', sans-serif" font-size="23" font-weight="900" fill="#29372c">AI Review</text>
    <text x="78" y="72" font-family="system-ui, -apple-system, BlinkMacSystemFont, 'Segoe UI', sans-serif" font-size="23" font-weight="900" fill="#29372c">Comment</text>
    <path d="M42 105 h146a18 18 0 0 1 18 18v51a18 18 0 0 1-18 18H90l-36 23 10-23H42a18 18 0 0 1-18-18v-51a18 18 0 0 1 18-18Z" fill="#edf2df" stroke="#9fb28a" stroke-width="3"/>
    <path d="M64 139 h102 M64 163 h78" stroke="#314b36" stroke-width="7" stroke-linecap="round" opacity=".76"/>
    <text x="115" y="235" text-anchor="middle" font-family="system-ui, -apple-system, BlinkMacSystemFont, 'Segoe UI', sans-serif" font-size="18" font-weight="800" fill="#6d715d">PRにレビュー結果を</text>
    <text x="115" y="260" text-anchor="middle" font-family="system-ui, -apple-system, BlinkMacSystemFont, 'Segoe UI', sans-serif" font-size="18" font-weight="800" fill="#6d715d">コメントする</text>
  </g>
</svg>
