<svg xmlns="http://www.w3.org/2000/svg" width="1200" height="700" viewBox="0 0 1200 700"><rect width="1200" height="700" fill="#f4ead8"/><path d="M0 0 H1200 V145 Q900 115 650 145 T0 145 Z" fill="#4f6f52"/><circle cx="1080" cy="110" r="120" fill="#d9b779" opacity=".55"/><circle cx="115" cy="620" r="95" fill="#9fb28a" opacity=".45"/><text x="70" y="85" font-size="42" font-family="sans-serif" font-weight="800" fill="#fff8e9">STEP5：役割分担</text><text x="72" y="160" font-size="25" font-family="sans-serif" fill="#314b36">YAMLは手順書、Pythonは処理本体</text><rect x="150" y="260" width="250" height="170" rx="42" fill="#fff8e9" stroke="#d7c39f" stroke-width="5"/><circle cx="275" cy="250" r="44" fill="#9fb28a" stroke="#314b36" stroke-width="4"/><text x="275" y="263" text-anchor="middle" font-size="30" font-family="sans-serif" font-weight="700" fill="#314b36">1</text><text x="275" y="330" text-anchor="middle" font-size="27" font-family="sans-serif" font-weight="700" fill="#29372c">YAML</text><text x="275" y="375" text-anchor="middle" font-size="20" font-family="sans-serif" fill="#6d715d">いつ動くか</text><rect x="500" y="260" width="250" height="170" rx="42" fill="#fff8e9" stroke="#d7c39f" stroke-width="5"/><circle cx="625" cy="250" r="44" fill="#9fb28a" stroke="#314b36" stroke-width="4"/><text x="625" y="263" text-anchor="middle" font-size="30" font-family="sans-serif" font-weight="700" fill="#314b36">2</text><text x="625" y="330" text-anchor="middle" font-size="27" font-family="sans-serif" font-weight="700" fill="#29372c">Python</text><text x="625" y="375" text-anchor="middle" font-size="20" font-family="sans-serif" fill="#6d715d">何をするか</text><rect x="850" y="260" width="250" height="170" rx="42" fill="#fff8e9" stroke="#d7c39f" stroke-width="5"/><circle cx="975" cy="250" r="44" fill="#9fb28a" stroke="#314b36" stroke-width="4"/><text x="975" y="263" text-anchor="middle" font-size="30" font-family="sans-serif" font-weight="700" fill="#314b36">3</text><text x="975" y="330" text-anchor="middle" font-size="27" font-family="sans-serif" font-weight="700" fill="#29372c">GitHub API</text><text x="975" y="375" text-anchor="middle" font-size="20" font-family="sans-serif" fill="#6d715d">PRへ投稿</text><path d="M405 345 C435 330 455 330 485 345" stroke="#a96d3a" stroke-width="8" fill="none"/><polygon points="485,345 465,330 468,358" fill="#a96d3a"/><path d="M755 345 C785 330 805 330 835 345" stroke="#a96d3a" stroke-width="8" fill="none"/><polygon points="835,345 815,330 818,358" fill="#a96d3a"/><rect x="110" y="535" width="980" height="70" rx="24" fill="#efe0c6" stroke="#d7c39f" stroke-width="4"/><text x="600" y="580" text-anchor="middle" font-size="24" font-family="sans-serif" font-weight="700" fill="#314b36">Canvaテンプレ風：緑 × ライトブラウン × 教育ポスター調</text></svg>